{"title":"Khumba 2013.1080p.BluRay.x264 . NVEE","uid":9672629,"size":2017284059,"categoryP":"video","categoryS":"hd___movies","magnet":"?xt=urn:btih:7bb7993eab4c5747ab1d3a7e53422de33f668095&amp;dn=Khumba+2013.1080p.BluRay.x264+.+NVEE&amp;tr=udp%3A%2F%2Ftracker.openbittorrent.com%3A80&amp;tr=udp%3A%2F%2Fopen.demonii.com%3A1337&amp;tr=udp%3A%2F%2Ftracker.coppersurfer.tk%3A6969&amp;tr=udp%3A%2F%2Fexodus.desync.com%3A6969","seeders":1,"leechers":0,"uploader":".NVEE","files":-1,"time":1393496082,"description":"FULL_INFOs\n\n\nSource : Blu-ray ~ 1080p\n\nSpoken Language : English\n\nAudio : 6 ~ Channels Only\n\nAll .srt &amp; .idx subs can be turned On/Off\n_____________________________________\n\n\n &lt;a href=&quot;\nhttp://www.imdb.com/title/tt1487931/&quot; rel=&quot;nofollow&quot; target=&quot;_NEW&quot;&gt;\nhttp://www.imdb.com/title/tt1487931/&lt;/a&gt;\n\n\n\n---------------------------------------------------------------------------------\n\n\nGeneral Metadata\n\nComplete name : Khumba 2013.1080p.BluRay.x264 . NVEE.mp4\nFormat : MPEG-4\nFormat profile : Base Media\nCodec ID : isom\nFile size : 1.88 GiB\nDuration : 1h 25mn\nOverall bit rate : 3 153 Kbps\nEncoded date : UTC 2014-02-25 00:45:05\nTagged date : UTC 2014-02-25 00:45:05\n\n\nVideo\n\nID : 1\nFormat : AVC\nFormat/Info : Advanced Video Codec\nFormat profile : &lt;a class=&quot;__cf_email__&quot; href=&quot;/cdn-cgi/l/email-protection&quot; data-cfemail=&quot;2b63424c436b671f051b&quot;&gt;[email&amp;#160;protected]&lt;/a&gt;&lt;script cf-hash='f9e31' type=&quot;text/javascript&quot;&gt;\n/* &lt;![CDATA[ */!function(){try{var t=&quot;currentScript&quot;in document?document.currentScript:function(){for(var t=document.getElementsByTagName(&quot;script&quot;),e=t.length;e--;)if(t[e].getAttribute(&quot;cf-hash&quot;))return t[e]}();if(t&amp;&amp;t.previousSibling){var e,r,n,i,c=t.previousSibling,a=c.getAttribute(&quot;data-cfemail&quot;);if(a){for(e=&quot;&quot;,r=parseInt(a.substr(0,2),16),n=2;a.length-n;n+=2)i=parseInt(a.substr(n,2),16)^r,e+=String.fromCharCode(i);e=document.createTextNode(e),c.parentNode.replaceChild(e,c)}}}catch(u){}}();/* ]]&gt; */&lt;/script&gt;\nFormat settings, CABAC : Yes\nFormat settings, ReFrames : 3 frames\nCodec ID : avc1\nCodec ID/Info : Advanced Video Coding\nDuration : 1h 25mn\nBit rate : 2 705 Kbps\nMaximum bit rate : 19.0 Mbps\nWidth : 1 920 pixels\nHeight : 800 pixels\nDisplay aspect ratio : 2.40:1\nFrame rate mode : Constant\nFrame rate : 23.976 fps\nColor space : YUV\nChroma subsampling : 4:2:0\nBit depth : 8 bits\nScan type : Progressive\nBits/(Pixel*Frame) : 0.073\nStream size : 1.61 GiB (85%)\nWriting library : x264 core 138 r2358 9e941d1\n\n\nAudio\n\nID : 2\nFormat : AC-3\nFormat/Info : Audio Coding 3\nMode extension : CM (complete main)\nFormat settings, Endianness : Big\nCodec ID : ac-3\nDuration : 1h 25mn\nBit rate mode : Constant\nBit rate : 448 Kbps\nChannel(s) : 6 channels\nChannel positions : Front: L C R, Side: L R, LFE\nSampling rate : 48.0 KHz\nBit depth : 16 bits\nCompression mode : Lossy\nStream size : 273 MiB (15%)\nLanguage : English\nEncoded date : UTC 2014-02-25 00:54:26\nTagged date : UTC 2014-02-25 00:55:29\n\n\nSynopsis\n\nA half-striped zebra named Khumba (Jake T. Austin) is born into an insular, isolated herd obsessed with stripes. Rumors that the strange foal is cursed spread and, before long, he is blamed for the drought that sets into the Great Karoo, except for Tombi (AnnaSophia Robb) his female zebra friend who has a huge crush on him. When a mystical mantis (Adrian Rhodes) appears to the foal, He draws a map to what could be interpreted as either water or stripes. When even his father Seko (Laurence Fishburne), the leader of the herd, blames him for the lack of rain and the subsequent death of his mother Lungisa (Anika Noni Rose), the outcast zebra leaves the confines of his home knowing that he cannot survive in the herd without all his stripes. Khumba ventures beyond the fence - vulnerable to the ferocious Leopard Phango (Liam Neeson), who terrorizes all the animals in the Great Karoo. Born blind in one eye and rejected by his family when he was just a cub has made Phango obsessed with being whole. Phango is highly superstitious and, unbeknownst to Khumba, has been waiting for the half-striped zebra, which, according to an ancient myth will make him the most powerful hunter that ever lived.\n\nEnj0y !","torrent":{"xt":"urn:btih:7bb7993eab4c5747ab1d3a7e53422de33f668095","amp;dn":"Khumba+2013.1080p.BluRay.x264+.+NVEE","amp;tr":["udp%3A%2F%2Ftracker.openbittorrent.com%3A80","udp%3A%2F%2Fopen.demonii.com%3A1337","udp%3A%2F%2Ftracker.coppersurfer.tk%3A6969","udp%3A%2F%2Fexodus.desync.com%3A6969"],"infoHash":"7bb7993eab4c5747ab1d3a7e53422de33f668095","infoHashBuffer":{"type":"Buffer","data":[123,183,153,62,171,76,87,71,171,29,58,126,83,66,45,227,63,102,128,149]},"announce":[],"urlList":[]}}